<svg xmlns="http://www.w3.org/2000/svg" xmlns:xlink="http://www.w3.org/1999/xlink" version="1.1" x="0px" y="0px" viewBox="0 0 100 125" enable-background="new 0 0 100 100" xml:space="preserve"><g><path fill="#000000" d="M94.8,69.3c0,0-0.9-4.2-2-8.7C91.2,54,86.7,49,81,47.1c4.9-3.6,7.3-9.9,6-16c-1.6-7.6-8.5-13-16.1-12.4   c-4.2,0.3-8.1,2.3-10.8,5.7c-2.7,3.4-4,7.8-3.4,12.2c0.1,1,0.4,1.9,0.6,2.8l-0.6,4.5c-0.1,0.5,0.1,1,0.5,1.4c0.3,0.2,0.6,0.4,1,0.4   c0.2,0,0.3,0,0.5-0.1l1.9-0.6c1.4,1.6,3.2,2.9,5.3,3.8c0.2,0.1,0.3,0.3,0.3,0.4c0,0.1,0,0.4-0.2,0.6c-0.8,0.6-1.6,1.4-2.3,2.2   c-2.2,2.3-3,4.5-3.5,6.6c-0.1,0.2-0.1,0.5-0.2,0.7l-9.6-13.6c-0.4-0.5-1-0.8-1.6-0.6c-0.5,0.1-12.5,3.1-19.5,10.2   c-1.3-0.4-3.7-1-7.2-1c-4.8,0-10.1,1-15.8,3c-0.4,0.1-0.8,0.5-0.9,0.9c-0.2,0.4-0.1,0.9,0.1,1.3l11.1,21.3c0.3,0.5,0.8,0.8,1.4,0.8   c0.1,0,0.2,0,0.2,0c0.1,0,8.3-1.3,15.6-1.3c3.3,0,5.9,0.3,7.6,0.8c0,0,0,0,0,0c0.1,0,0.3,0.1,0.4,0.1c0,0,0,0,0,0c0,0,0,0,0.1,0   c0,0,0.1,0,0.1,0c0,0,0.1,0,0.1,0c0,0,0.1,0,0.1,0c0,0,0.1,0,0.1,0c0,0,0.1,0,0.1,0c0,0,0.1,0,0.1,0c0,0,0.1,0,0.1-0.1   c0,0,0,0,0.1,0c0,0,0.1-0.1,0.1-0.1c0,0,0,0,0.1,0c0,0,0.1-0.1,0.1-0.1c0,0,0,0,0,0c0,0,0,0,0,0c0-0.1,0.1-0.1,0.1-0.2   c0,0,1.7-2.8,5.4-4.5c1.8,0.5,3.5,0.7,5.2,0.7c3,0,5.8-0.7,8-1.7l1.2,5.5c0.2,0.7,0.8,1.2,1.5,1.2c0.1,0,0.2,0,0.3,0   c0.8-0.2,1.4-1,1.2-1.8l-1.4-6.4c0.4-0.3,0.7-0.5,1-0.8c0.6-0.6,0.6-1.6,0.1-2.2c-0.6-0.6-1.6-0.6-2.2-0.1   c-2.4,2.3-8.9,4.6-15.2,2.2c-4.5-1.7-7.6-5.9-8.7-8.3c-0.3-0.6-0.2-1.3,0.1-1.9c0.3-0.6,0.8-1,1.5-1.1l0.1,0c0.8-0.1,1.7,0.2,2.1,1   c1.3,2,3.6,4.6,7.3,5.7c3.3,1,6.9-0.4,10.1-4c1.1-1.2,1.9-2.8,2.4-4.7c0.4-1.5,0.9-3.3,2.7-5.2c0,0,0,0,0,0c0,0,0,0,0,0   c0.6-0.7,1.2-1.3,1.9-1.8c1-0.8,1.5-2.1,1.4-3.4c-0.2-1.3-1-2.3-2.1-2.9c0,0,0,0,0,0c1.8-1.7,2.3-3.8,2.3-4c0.2-1-0.4-2-1.4-2.2   c-1-0.2-2,0.4-2.2,1.4c0,0.1-0.4,1.8-2,2.5c0,0,0,0,0,0c-0.5-0.5-1-1-1.4-1.5c0,0,0-0.1-0.1-0.1c-1.3-1.7-2.2-3.8-2.5-6   c-0.5-3.5,0.5-7.1,2.7-9.8c2.2-2.7,5.2-4.3,8.6-4.5c6.1-0.5,11.6,3.8,12.9,10c1.1,5.3-1.2,10.8-5.8,13.5c-0.8,0.5-1.3,1.5-1.1,2.5   c0.2,1,0.9,1.8,1.8,2c5.2,1.2,9.4,5.6,10.8,11.5c1.1,4.5,2,8.6,2,8.6c0.2,0.7,0.8,1.2,1.5,1.2c0.1,0,0.2,0,0.3,0   C94.4,70.9,94.9,70.1,94.8,69.3z M33.8,77.3c-6,0-12.5,0.8-15,1.2L9,59.7c4.8-1.5,9.2-2.2,13.1-2.2c3.5,0,5.7,0.6,6.5,0.9L39,77.5   C37.5,77.4,35.8,77.3,33.8,77.3z M51.7,65c-1.4-0.4-2.5-1.1-3.4-1.9c0.3-0.2,0.5-0.4,0.6-0.7c0.3-0.8,0-1.7-0.8-2L37,55.6   c-0.8-0.3-1.7,0-2,0.8c-0.3,0.8,0,1.7,0.8,2l2.4,1.1c-0.4,0.4-0.8,0.9-1.1,1.4c-0.8,1.4-0.9,3.1-0.2,4.6c1.2,2.9,4.2,6.7,8.2,8.9   c-1.2,0.8-2.2,1.7-2.9,2.5L31.7,57.4c5.3-5.3,14-8.2,16.9-9l9.8,13.8C56.7,64,54.2,65.8,51.7,65z"/><path fill="#000000" d="M22.6,59.3c-1,0-2.1,0.1-3.2,0.4c-2.3,0.5-3.4,1.8-3.9,2.8c-1,2.1-0.7,4.9,1.1,8.7c1.7,3.7,4.1,5.6,7.1,5.6   c0,0,0,0,0,0c2.3,0,4.4-1.2,5.6-1.9l0,0c2.9-1.7,3.4-5.6,1.3-9.9C29.4,62.3,27.3,59.3,22.6,59.3z M27.7,72.1L27.7,72.1   c-1,0.6-2.6,1.5-4,1.5c0,0,0,0,0,0c-0.6,0-2.5,0-4.3-3.8c-1.8-3.7-1.5-5.4-1.1-6.1c0.1-0.2,0.4-0.8,1.8-1.1   c0.9-0.2,1.8-0.3,2.6-0.3c2.9,0,4.1,1.5,5.3,3.9C28.8,68.3,29.4,71.1,27.7,72.1z"/><path fill="#000000" d="M43.1,53.3c-0.1,0-0.2,0-0.2,0c-0.7,0.2-1.5,0.5-2,1c-0.6,0.6-0.6,1.6,0,2.2c0.6,0.6,1.5,0.6,2.1,0.1   c0.1-0.1,0.4-0.2,0.6-0.2c5.4-0.6,6.7,1.5,7.8,3.9c0.4,0.9,0.6,1.7,0.7,2.5c0.1,0.8,0.7,1.4,1.5,1.4c0,0,0.1,0,0.1,0   c0.8-0.1,1.5-0.8,1.4-1.7c-0.1-1.1-0.4-2.3-0.9-3.5C52.7,55.8,50.3,52.5,43.1,53.3z"/><path fill="#000000" d="M24.8,67c0.4,0,0.8-0.2,1.1-0.4c0.3-0.3,0.4-0.7,0.4-1.1c0-0.4-0.2-0.8-0.4-1.1c-0.3-0.3-0.7-0.4-1.1-0.4   c-0.4,0-0.8,0.2-1.1,0.4c-0.3,0.3-0.5,0.7-0.5,1.1c0,0.4,0.2,0.8,0.5,1.1C24,66.8,24.4,67,24.8,67z"/><path fill="#000000" d="M22.2,66.1c0-0.4-0.2-0.8-0.4-1.1c-0.3-0.3-0.7-0.4-1.1-0.4c-0.4,0-0.8,0.2-1.1,0.4   c-0.3,0.3-0.4,0.7-0.4,1.1c0,0.4,0.2,0.8,0.4,1.1c0.3,0.3,0.7,0.4,1.1,0.4c0.4,0,0.8-0.2,1.1-0.4C22.1,66.9,22.2,66.5,22.2,66.1z"/><path fill="#000000" d="M25,68.1c-0.3,0.3-1.3,0.5-1.8,0.4c-0.8-0.2-1.6,0.4-1.8,1.2c-0.2,0.8,0.4,1.6,1.2,1.8   c0.3,0,0.5,0.1,0.8,0.1c1.2,0,2.7-0.4,3.7-1.3c0.6-0.6,0.7-1.6,0.1-2.2C26.6,67.5,25.6,67.5,25,68.1z"/><path fill="#000000" d="M61.8,35.3c-0.4,0.4-0.6,1-0.6,1.5c0,0.6,0.2,1.1,0.6,1.5c0.4,0.4,1,0.6,1.5,0.6c0.6,0,1.1-0.2,1.5-0.6   c0.4-0.4,0.6-1,0.6-1.5c0-0.6-0.2-1.1-0.6-1.5c-0.4-0.4-1-0.6-1.5-0.6C62.8,34.7,62.2,34.9,61.8,35.3z"/></g><text x="0" y="115" fill="#000000" font-size="5px" font-weight="bold" font-family="'Helvetica Neue', Helvetica, Arial-Unicode, Arial, Sans-serif">Created by HeadsOfBirds</text><text x="0" y="120" fill="#000000" font-size="5px" font-weight="bold" font-family="'Helvetica Neue', Helvetica, Arial-Unicode, Arial, Sans-serif">from the Noun Project</text></svg>